# AST/ASF file generated using VICON BodyLanguage
# -----------------------------------------------
:version 1.10
:name VICON
:units
  mass 1.0
  length 0.45
  angle deg
:documentation
   .ast/.asf automatically generated from VICON data using
   VICON BodyBuilder and BodyLanguage model FoxedUp or BRILLIANT.MOD
:root
   order TX TY TZ RX RY RZ
   axis XYZ
   position 0 0 0  
   orientation 0 0 0 
:bonedata
  begin
     id 1 
     name lhipjoint
     direction 0.690799 -0.707083 0.151096 
     length 2.54797 
     axis 0 0 0  XYZ
  end
  begin
     id 2 
     name lfemur
     direction 0.34202 -0.939693 0  
     length 7.21646  
     axis 0 0 20  XYZ
    dof rx ry rz
    limits (-160.0 20.0)
           (-70.0 70.0)
           (-60.0 70.0)
  end
  begin
     id 3 
     name ltibia
     direction 0.34202 -0.939693 0   
     length 8.16759   
     axis 0 0 20   XYZ
    dof rx
    limits (-10.0 170.0)
  end
  begin
     id 4 
     name lfoot
     direction 0.0487203 -0.133858 0.989802   
     length 1.93375   
     axis -90 7.62852e-016 20   XYZ
    dof rx rz
    limits (-45.0 90.0)
           (-70.0 20.0)
  end
  begin
     id 5 
     name ltoes
     direction 1.53453e-011 -4.21783e-011 1   
     length 0.979747   
     axis -90 7.62852e-016 20   XYZ
    dof rx
    limits (-90.0 20.0)
  end
  begin
     id 6 
     name rhipjoint
     direction -0.694693 -0.703425 0.150315   
     length 2.56122  
     axis 0 0 0  XYZ 
  end
  begin
     id 7 
     name rfemur
     direction -0.34202 -0.939693 0   
     length 7.36786   
     axis 0 0 -20   XYZ
    dof rx ry rz
    limits (-160.0 20.0)
           (-70.0 70.0)
           (-70.0 60.0)
  end
  begin
     id 8 
     name rtibia
     direction -0.34202 -0.939693 0   
     length 8.07288   
     axis 0 0 -20   XYZ
    dof rx
    limits (-10.0 170.0)
 end
 begin
     id 9 
     name rfoot
     direction -0.0428397 -0.117701 0.992125   
     length 1.88295  
     axis -90 -7.62852e-016 -20   XYZ
    dof rx rz
    limits (-45.0 90.0)
           (-20.0 70.0)
  end
  begin
     id 10 
     name rtoes
     direction -1.53456e-011 -4.2187e-011 1   
     length 0.955578   
     axis -90 -7.62852e-016 -20   XYZ
    dof rx
    limits (-90.0 20.0)
  end
  begin
     id 11 
     name lowerback
     direction 0.0288145 0.999398 -0.0193241   
     length 1.92149   
     axis 0 0 0   XYZ
    dof rx ry rz
    limits (-20.0 45.0)
           (-30.0 30.0)
           (-30.0 30.0)
  end
  begin
     id 12 
     name upperback
     direction 0.0233784 0.998099 0.0570278   
     length 1.90435   
     axis 0 0 0   XYZ
    dof rx ry rz
    limits (-20.0 45.0)
           (-30.0 30.0)
           (-30.0 30.0)
  end
  begin
     id 13 
     name thorax
     direction 0.0096694 0.997833 0.0650817   
     length 1.9111   
     axis 0 0 0   XYZ
    dof rx ry rz
    limits (-20.0 45.0)
           (-30.0 30.0)
           (-30.0 30.0)
  end
  begin
     id 14 
     name lowerneck
     direction 0.00516803 0.999916 0.0118722   
     length 1.74664   
     axis 0 0 0   XYZ
    dof rx ry rz
    limits (-20.0 45.0)
           (-30.0 30.0)
           (-30.0 30.0)
  end
  begin
     id 15 
     name upperneck
     direction -0.0510851 0.996117 -0.071696   
     length 1.68498   
     axis 0 0 0   XYZ
    dof rx ry rz
    limits (-20.0 45.0)
           (-30.0 30.0)
           (-30.0 30.0)
  end
  begin
     id 16
     name head
     direction -0.019188 0.999436 -0.0275702  
     length 1.83483  
     axis 0 0 0   XYZ
    dof rx ry rz
    limits (-20.0 45.0)
           (-30.0 30.0)
           (-30.0 30.0)
  end
  begin
     id 17 
     name lclavicle
     direction 0.967006 0.248456 -0.0562957  
     length 3.39395  
     axis 0 0 0   XYZ
    dof ry rz
    limits (-20.0 10.0)
           (0.0 20.0)
  end
  begin
     id 18 
     name lhumerus
     direction 1 -4.48962e-011 -5.62711e-019   
     length 5.24318   
     axis 180 -30 -90   XYZ
    dof rx ry rz
    limits (-60.0 90.0)
           (-90.0 90.0)
           (-90.0 90.0)
  end
  begin
     id 19
     name lradius
     direction 1 -4.48966e-011 7.90625e-027   
     length 2.98999   
     axis 180 -30 -90   XYZ
    dof rx
    limits (-10.0 170.0)
  end
  begin
     id 20
     name lwrist
     direction 1 -4.48959e-011 1.61068e-026   
     length 1.49499   
     axis -9.31229e-015 90 90   XYZ
    dof ry
    limits (-180.0 0.0)
 end
  begin
     id 21 
     name lhand
     direction 1 -4.49017e-011 3.22136e-026   
     length 0.726745   
     axis -2.0555e-014 90 90   XYZ
    dof rx rz
    limits (-90.0 90.0)
           (-45.0 45.0)
  end
  begin
     id 22 
     name lfingers
     direction 1 -4.4898e-011 6.44272e-026   
     length 0.58592   
     axis -4.11101e-014 90 90   XYZ
    dof rx
    limits (0.0 90.0)
  end
  begin
     id 23
     name lthumb
     direction 0.707107 -6.34922e-011 0.707107   
     length 0.841268   
     axis -90 45 2.85299e-015   XYZ
    dof rx rz
    limits (-45.0 45.0)
           (-45.0 45.0)
  end
  begin
     id 24 
     name rclavicle
     direction -0.972232 0.230238 0.0419005   
     length 3.40416  
     axis 0 0 0   XYZ 
    dof ry rz
    limits (-10.0 20.0)
           (-20.0 0.0)
  end
  begin
     id 25 
     name rhumerus
     direction -1 -4.48976e-011 2.48487e-027  
     length 5.37045   
     axis 180 30 90   XYZ
    dof rx ry rz
    limits (-90.0 60.0)
           (-90.0 90.0)
           (-90.0 90.0)
  end
  begin
     id 26 
     name rradius
     direction -1 -4.48942e-011 7.87951e-027   
     length 2.92792   
     axis 180 30 90   XYZ
    dof rx
    limits (-10.0 170.0)
  end
  begin
     id 27 
     name rwrist
     direction -1 -4.48969e-011 1.61068e-026   
     length 1.46396   
     axis -9.31229e-015 -90 -90   XYZ
    dof ry
    limits (-180.0 0.0)
  end
  begin
     id 28
     name rhand
     direction -1 -4.49043e-011 3.22136e-026   
     length 0.784497   
     axis -2.0555e-014 -90 -90   XYZ
    dof rx rz
    limits (-90.0 90.0)
           (-45.0 45.0)
  end
  begin
     id 29
     name rfingers
     direction -1 -4.48823e-011 6.44272e-026   
     length 0.632482   
     axis -4.11101e-014 -90 -90   XYZ
    dof rx
    limits (0.0 90.0)
  end
  begin
     id 30
     name rthumb
     direction -0.707107 -6.34923e-011 0.707107   
     length 0.908121   
     axis -90 -45 -2.85299e-015   XYZ
    dof rx rz
    limits (-45.0 45.0)
           (-45.0 45.0)
  end
:hierarchy
  begin
    root lhipjoint rhipjoint lowerback
    lhipjoint lfemur
    lfemur ltibia
    ltibia lfoot
    lfoot ltoes
    rhipjoint rfemur
    rfemur rtibia
    rtibia rfoot
    rfoot rtoes
    lowerback upperback
    upperback thorax
    thorax lowerneck lclavicle rclavicle
    lowerneck upperneck
    upperneck head
    lclavicle lhumerus
    lhumerus lradius
    lradius lwrist
    lwrist lhand lthumb
    lhand lfingers
    rclavicle rhumerus
    rhumerus rradius
    rradius rwrist
    rwrist rhand rthumb
    rhand rfingers
  end

#!OML:ASF F:\VICON\USERDATA\INSTALL\rory3\rory3.ASF
:FULLY-SPECIFIED
:DEGREES
1124
root -0.135379 18.2678 1.34145 25.6994 -1.76048 -1.46773
lowerback 9.05223 -1.21583 3.45349
upperback -5.03408 -0.888793 2.93103
thorax -10.5192 -0.548721 1.37308
lowerneck 7.42236 0.173719 0.487177
upperneck -16.2087 -1.09237 -8.28673
head -6.17949 0.0670742 -2.63336
rclavicle 7.95139e-016 3.18055e-015
rhumerus -32.5475 16.2614 -92.6479
rradius 135.764
rwrist 41.0332
rhand 18.2187 0.0190881
rfingers 7.12502
rthumb 42.8722 -24.2719
lclavicle 7.95139e-016 3.18055e-015
lhumerus -43.2325 -8.85384 89.5243
lradius 131.557
lwrist -27.5926
lhand -9.57008 24.1704
lfingers 7.12502
lthumb 16.3976 53.4973
rfemur -28.1675 23.1076 11.9093
rtibia 9.17144
rfoot -15.8946 -31.4751
rtoes 23.004
lfemur -27.3477 -19.4724 -7.95638
ltibia 14.7742
lfoot -9.07358 29.1012
ltoes -2.22252
1125
root -0.142712 18.2683 1.34048 25.7359 -1.80141 -1.61268
lowerback 9.04407 -1.20329 3.29974
upperback -4.98549 -0.904419 2.83683
thorax -10.4575 -0.549009 1.35848
lowerneck 7.46812 0.178775 0.461022
upperneck -16.3485 -1.07107 -8.11352
head -6.22976 0.0705284 -2.57734
rclavicle 1.0138e-014 5.96354e-015
rhumerus -32.5405 16.2436 -92.794
rradius 135.738
rwrist 41.024
rhand 18.2181 -0.135496
rfingers 7.12502
rthumb 42.8717 -24.4266
lclavicle 1.0138e-014 5.96354e-015
lhumerus -43.1276 -8.85975 89.4433
lradius 131.475
lwrist -27.6107
lhand -9.87009 24.1779
lfingers 7.12502
lthumb 16.1087 53.5284
rfemur -28.1073 23.2583 12.0034
rtibia 8.91777
rfoot -15.7427 -31.5835
rtoes 23.0652
lfemur -27.4445 -19.4492 -7.76655
ltibia 14.9329
lfoot -9.22218 29.1678
ltoes -2.07028
1126
root -0.148372 18.268 1.33741 25.8153 -1.80874 -1.72198
lowerback 9.01356 -1.21668 3.16788
upperback -4.93617 -0.954341 2.72917
thorax -10.3826 -0.567989 1.32274
lowerneck 7.39268 0.183883 0.40498
upperneck -16.4145 -1.03629 -7.88294
head -6.23453 0.0732717 -2.49717
rclavicle -1.98785e-015 7.95139e-016
rhumerus -32.5103 16.2436 -92.9591
rradius 135.71
rwrist 41.0206
rhand 18.1468 -0.345912
rfingers 7.12502
rthumb 42.8049 -24.6604
lclavicle -1.98785e-015 7.95139e-016
lhumerus -43.0259 -8.83403 89.3298
lradius 131.343
lwrist -27.8053
lhand -10.2751 24.1621
lfingers 7.12502
lthumb 15.7187 53.5437
rfemur -28.0445 23.3574 12.0628
rtibia 8.57008
rfoot -15.6602 -31.6794
rtoes 23.4428
lfemur -27.6318 -19.4149 -7.59208
ltibia 15.1376
lfoot -9.45022 29.1835
ltoes -1.70591
1127
root -0.153836 18.2678 1.33084 25.8735 -1.79554 -1.81505
lowerback 9.07616 -1.2345 3.02295
upperback -4.91516 -1.00473 2.63365
thorax -10.3945 -0.586076 1.31132
lowerneck 7.29629 0.18484 0.280152
upperneck -16.3864 -1.0015 -7.60383
head -6.20588 0.0737754 -2.38856
rclavicle -3.71727e-014 4.33351e-014
rhumerus -32.5068 16.2141 -93.0378
rradius 135.713
rwrist 40.971
rhand 18.2398 -0.349574
rfingers 7.12502
rthumb 42.8919 -24.6336
lclavicle -3.71727e-014 4.33351e-014
lhumerus -42.9447 -8.85719 89.2725
lradius 131.284
lwrist -27.9457
lhand -10.3953 24.2709
lfingers 7.12502
lthumb 15.6029 53.6616
rfemur -27.9748 23.4325 12.1233
rtibia 8.22905
rfoot -15.7011 -31.7524
rtoes 23.9525
lfemur -27.8129 -19.3529 -7.43582
ltibia 15.3272
lfoot -9.59735 29.1266
ltoes -1.47537
1128
root -0.159897 18.2675 1.32472 25.9023 -1.81773 -1.96173
lowerback 9.22079 -1.22618 2.91129
upperback -4.91295 -1.01209 2.52474
thorax -10.4774 -0.586399 1.26213
lowerneck 7.24178 0.196082 0.172986
upperneck -16.3328 -0.945052 -7.30142
head -6.17562 0.0824133 -2.27711
rclavicle 2.0773e-014 -4.37326e-015
rhumerus -32.5256 16.1055 -93.1012
rradius 135.714
rwrist 40.8768
rhand 18.3271 -0.117624
rfingers 7.12502
rthumb 42.9736 -24.3729
lclavicle 2.0773e-014 -4.37326e-015
lhumerus -42.8922 -8.90363 89.2111
lradius 131.265
lwrist -27.9365
lhand -10.2742 24.2436
lfingers 7.12502
lthumb 15.7196 53.6252
rfemur -27.8884 23.5668 12.2267
rtibia 7.90223
rfoot -15.5983 -31.8691
rtoes 24.1338
lfemur -27.934 -19.3153 -7.22587
ltibia 15.5032
lfoot -9.98171 29.0738
ltoes -0.531605
